<svg width="21" height="21" viewBox="0 0 21 21" fill="none" xmlns="http://www.w3.org/2000/svg">
<path d="M2 20.6998C1.45 20.6998 0.979 20.5038 0.587 20.1118C0.195667 19.7205 0 19.2498 0 18.6998V4.6998C0 4.1498 0.195667 3.6788 0.587 3.2868C0.979 2.89547 1.45 2.6998 2 2.6998H10.925L8.925 4.6998H2V18.6998H16V11.7498L18 9.7498V18.6998C18 19.2498 17.8043 19.7205 17.413 20.1118C17.021 20.5038 16.55 20.6998 16 20.6998H2ZM13.175 3.2748L14.6 4.6748L8 11.2748V12.6998H9.4L16.025 6.0748L17.45 7.4748L10.25 14.6998H6V10.4498L13.175 3.2748ZM17.45 7.4748L13.175 3.2748L15.675 0.774805C16.075 0.374805 16.5543 0.174805 17.113 0.174805C17.671 0.174805 18.1417 0.374805 18.525 0.774805L19.925 2.1998C20.3083 2.58314 20.5 3.0498 20.5 3.5998C20.5 4.1498 20.3083 4.61647 19.925 4.9998L17.45 7.4748Z" fill="#808080"/>
</svg>
