<svg width="16" height="26" viewBox="0 0 16 26" fill="none" xmlns="http://www.w3.org/2000/svg">
<path d="M3.43125 0.866144L14.6646 12.0661C14.7979 12.1995 14.8921 12.3439 14.9473 12.4995C15.0033 12.655 15.0312 12.8217 15.0312 12.9995C15.0312 13.1773 15.0033 13.3439 14.9473 13.4995C14.8921 13.655 14.7979 13.7995 14.6646 13.9328L3.43125 25.1661C3.12014 25.4773 2.73125 25.6328 2.26458 25.6328C1.79792 25.6328 1.39792 25.4661 1.06458 25.1328C0.73125 24.7995 0.564584 24.4106 0.564584 23.9661C0.564584 23.5217 0.73125 23.1328 1.06458 22.7995L10.8646 12.9995L1.06458 3.19948C0.753473 2.88837 0.597917 2.50526 0.597917 2.05014C0.597917 1.59414 0.764583 1.19948 1.09792 0.866144C1.43125 0.532811 1.82014 0.366144 2.26458 0.366144C2.70903 0.366144 3.09792 0.532811 3.43125 0.866144Z" fill="#121212"/>
</svg>
