<svg width="16" height="26" viewBox="0 0 16 26" fill="none" xmlns="http://www.w3.org/2000/svg">
<path d="M12.1664 25.1339L0.933072 13.9339C0.799739 13.8005 0.705517 13.6561 0.650406 13.5005C0.594406 13.345 0.566406 13.1783 0.566406 13.0005C0.566406 12.8227 0.594406 12.6561 0.650406 12.5005C0.705517 12.345 0.799739 12.2005 0.933072 12.0672L12.1664 0.833854C12.4775 0.522743 12.8664 0.367188 13.3331 0.367188C13.7997 0.367188 14.1997 0.533854 14.5331 0.867188C14.8664 1.20052 15.0331 1.58941 15.0331 2.03385C15.0331 2.4783 14.8664 2.86719 14.5331 3.20052L4.73307 13.0005L14.5331 22.8005C14.8442 23.1116 14.9997 23.4947 14.9997 23.9499C14.9997 24.4059 14.8331 24.8005 14.4997 25.1339C14.1664 25.4672 13.7775 25.6339 13.3331 25.6339C12.8886 25.6339 12.4997 25.4672 12.1664 25.1339Z" fill="#121212"/>
</svg>
